# Blender v2.78 (sub 0) OBJ File: ''
# www.blender.org
mtllib UFOShapePassThroughPlanetParts.mtl
o n0b0
v 2.642344 0.487969 -0.858437
v 2.247656 0.487969 -1.632969
v 2.247656 -0.487969 -1.632969
v 2.642344 -0.487969 -0.858437
v 1.632969 0.487969 -2.247656
v 1.632969 -0.487969 -2.247656
v 0.858437 0.487969 -2.642344
v 0.858437 -0.487969 -2.642344
v 0.000000 0.487969 -2.778281
v 0.000000 0.487969 -2.778281
v 0.000000 -0.487969 -2.778281
v 0.000000 -0.487969 -2.778281
v -0.858437 0.487969 -2.642344
v -0.858437 -0.487969 -2.642344
v -1.632969 0.487969 -2.247656
v -1.632969 -0.487969 -2.247656
v -2.247656 0.487969 -1.632969
v -2.247656 -0.487969 -1.632969
v -2.642344 0.487969 -0.858437
v -2.642344 -0.487969 -0.858437
v -2.778281 0.487969 0.000000
v -2.778281 -0.487969 0.000000
v -2.642344 0.487969 0.858437
v -2.642344 -0.487969 0.858437
v -2.247656 0.487969 1.632969
v -2.247656 -0.487969 1.632969
v -1.632969 0.487969 2.247656
v -1.632969 -0.487969 2.247656
v -0.858437 0.487969 2.642344
v -0.858437 -0.487969 2.642344
v 0.000000 0.487969 2.778281
v 0.000000 -0.487969 2.778281
v 0.858437 0.487969 2.642344
v 0.858437 -0.487969 2.642344
v 1.632969 0.487969 2.247656
v 1.632969 -0.487969 2.247656
v 2.247656 0.487969 1.632969
v 2.247656 -0.487969 1.632969
v 2.642344 0.487969 0.858437
v 2.642344 -0.487969 0.858437
v 2.778281 0.487969 0.000000
v 2.778281 -0.487969 0.000000
vt -0.4999 0.0001
vt -0.4000 1.0000
vt -0.4999 1.0000
vt -0.4000 0.0001
vt -0.2999 1.0000
vt -0.2999 0.0001
vt -0.2000 1.0000
vt -0.2000 0.0001
vt -0.0999 1.0000
vt -0.0999 0.0001
vt 0.0000 1.0000
vt 0.0000 0.0001
vt 0.1000 1.0000
vt 0.1000 0.0001
vt 0.2000 1.0000
vt 0.2000 0.0001
vt 0.3000 1.0000
vt 0.3000 0.0001
vt 0.4000 1.0000
vt 0.4000 0.0001
vt 0.5000 1.0000
vt 0.5000 0.0001
vt 0.6000 1.0000
vt 0.6000 0.0001
vt 0.7000 1.0000
vt 0.7000 0.0001
vt 0.8000 1.0000
vt 0.8000 0.0001
vt 0.9000 1.0000
vt 0.9000 0.0001
vt 1.0000 1.0000
vt 1.0000 0.0001
vt 1.1000 1.0000
vt 1.1000 0.0001
vt 1.5000 1.0000
vt 1.4000 0.0001
vt 1.5000 0.0001
vt 1.4000 1.0000
vt 1.3000 0.0001
vt 1.3000 1.0000
vt 1.2000 0.0001
vt 1.2000 1.0000
vn -0.1564 0.0000 -0.9877
vn -0.4540 0.0000 -0.8910
vn -0.7071 0.0000 -0.7071
vn -0.8910 0.0000 -0.4540
vn -0.9877 0.0000 -0.1564
vn -0.9877 0.0000 0.1564
vn -0.8910 0.0000 0.4540
vn -0.7071 0.0000 0.7071
vn -0.4540 0.0000 0.8910
vn -0.1564 0.0000 0.9877
vn 0.1564 0.0000 0.9877
vn 0.4540 0.0000 0.8910
vn 0.7071 0.0000 0.7071
vn 0.8910 0.0000 0.4540
vn 0.9877 0.0000 0.1564
vn 0.9877 0.0000 -0.1564
vn 0.1564 0.0000 -0.9877
vn 0.4540 0.0000 -0.8910
vn 0.7071 0.0000 -0.7071
vn 0.8910 0.0000 -0.4540
usemtl m0
s off
f 12/1/1 13/2/1 10/3/1
f 13/2/1 12/1/1 14/4/1
f 14/4/2 15/5/2 13/2/2
f 15/5/2 14/4/2 16/6/2
f 16/6/3 17/7/3 15/5/3
f 17/7/3 16/6/3 18/8/3
f 18/8/4 19/9/4 17/7/4
f 19/9/4 18/8/4 20/10/4
f 20/10/5 21/11/5 19/9/5
f 21/11/5 20/10/5 22/12/5
f 22/12/6 23/13/6 21/11/6
f 23/13/6 22/12/6 24/14/6
f 24/14/7 25/15/7 23/13/7
f 25/15/7 24/14/7 26/16/7
f 26/16/8 27/17/8 25/15/8
f 27/17/8 26/16/8 28/18/8
f 28/18/9 29/19/9 27/17/9
f 29/19/9 28/18/9 30/20/9
f 30/20/10 31/21/10 29/19/10
f 31/21/10 30/20/10 32/22/10
f 32/22/11 33/23/11 31/21/11
f 33/23/11 32/22/11 34/24/11
f 34/24/12 35/25/12 33/23/12
f 35/25/12 34/24/12 36/26/12
f 36/26/13 37/27/13 35/25/13
f 37/27/13 36/26/13 38/28/13
f 38/28/14 39/29/14 37/27/14
f 39/29/14 38/28/14 40/30/14
f 40/30/15 41/31/15 39/29/15
f 41/31/15 40/30/15 42/32/15
f 42/32/16 1/33/16 41/31/16
f 1/33/16 42/32/16 4/34/16
f 9/35/17 8/36/17 11/37/17
f 8/36/17 9/35/17 7/38/17
f 7/38/18 6/39/18 8/36/18
f 6/39/18 7/38/18 5/40/18
f 5/40/19 3/41/19 6/39/19
f 3/41/19 5/40/19 2/42/19
f 2/42/20 4/34/20 3/41/20
f 1/33/20 4/34/20 2/42/20
o n1b1
v 2.642344 0.487969 -0.858437
v 2.247656 0.487969 -1.632969
v 2.247656 -0.487969 -1.632969
v 2.642344 -0.487969 -0.858437
v 1.632969 0.487969 -2.247656
v 1.632969 -0.487969 -2.247656
v 0.858437 0.487969 -2.642344
v 0.858437 -0.487969 -2.642344
v 0.000000 0.487969 -2.778281
v 0.000000 -0.487969 -2.778281
v -0.858437 0.487969 -2.642344
v -0.858437 -0.487969 -2.642344
v -1.632969 0.487969 -2.247656
v -1.632969 -0.487969 -2.247656
v -2.247656 0.487969 -1.632969
v -2.247656 -0.487969 -1.632969
v -2.642344 0.487969 -0.858437
v -2.642344 -0.487969 -0.858437
v -2.778281 0.487969 0.000000
v -2.778281 -0.487969 0.000000
v -2.642344 0.487969 0.858437
v -2.642344 -0.487969 0.858437
v -2.247656 0.487969 1.632969
v -2.247656 -0.487969 1.632969
v -1.632969 0.487969 2.247656
v -1.632969 -0.487969 2.247656
v -0.858437 0.487969 2.642344
v -0.858437 -0.487969 2.642344
v 0.000000 0.487969 2.778281
v 0.000000 -0.487969 2.778281
v 0.858437 0.487969 2.642344
v 0.858437 -0.487969 2.642344
v 1.632969 0.487969 2.247656
v 1.632969 -0.487969 2.247656
v 2.247656 0.487969 1.632969
v 2.247656 -0.487969 1.632969
v 2.642344 0.487969 0.858437
v 2.642344 -0.487969 0.858437
v 2.778281 0.487969 0.000000
v 2.778281 -0.487969 0.000000
v 0.000000 -0.487969 0.000000
v 0.000000 0.487969 0.000000
vt 0.8530 0.6176
vt 0.4876 0.4835
vt 0.8718 0.4835
vt 0.8530 0.3494
vt 0.7984 0.2285
vt 0.7134 0.1324
vt 0.6063 0.0708
vt 0.4876 0.0496
vt 0.3689 0.0708
vt 0.2618 0.1324
vt 0.1768 0.2285
vt 0.1222 0.3494
vt 0.1034 0.4835
vt 0.1222 0.6176
vt 0.1768 0.7386
vt 0.2618 0.8346
vt 0.3689 0.8962
vt 0.4876 0.9175
vt 0.6063 0.8962
vt 0.7134 0.8346
vt 0.4876 0.4835
vt 0.8530 0.6176
vt 0.8718 0.4835
vt 0.7984 0.7386
vt 0.7134 0.8346
vt 0.7984 0.7386
vt 0.8530 0.3494
vt 0.7984 0.2285
vt 0.7134 0.1324
vt 0.6063 0.0708
vt 0.4876 0.0496
vt 0.3689 0.0708
vt 0.2618 0.1324
vt 0.1768 0.2285
vt 0.1222 0.3494
vt 0.1034 0.4835
vt 0.1222 0.6176
vt 0.1768 0.7386
vt 0.2618 0.8346
vt 0.3689 0.8962
vt 0.4876 0.9175
vt 0.6063 0.8962
vn 0.0000 1.0000 -0.0000
vn 0.0000 -1.0000 -0.0000
usemtl m1
s off
f 43/43/21 84/44/21 81/45/21
f 81/45/21 84/44/21 79/46/21
f 77/47/21 79/46/21 84/44/21
f 84/44/21 75/48/21 77/47/21
f 75/48/21 84/44/21 73/49/21
f 71/50/21 73/49/21 84/44/21
f 84/44/21 69/51/21 71/50/21
f 69/51/21 84/44/21 67/52/21
f 65/53/21 67/52/21 84/44/21
f 84/44/21 63/54/21 65/53/21
f 63/54/21 84/44/21 61/55/21
f 59/56/21 61/55/21 84/44/21
f 84/44/21 57/57/21 59/56/21
f 57/57/21 84/44/21 55/58/21
f 53/59/21 55/58/21 84/44/21
f 84/44/21 51/60/21 53/59/21
f 51/60/21 84/44/21 49/61/21
f 47/62/21 49/61/21 84/44/21
f 83/63/22 46/64/22 82/65/22
f 46/64/22 83/63/22 45/66/22
f 48/67/22 45/66/22 83/63/22
f 84/44/21 44/68/21 47/62/21
f 43/43/21 44/68/21 84/44/21
f 80/69/22 83/63/22 82/65/22
f 83/63/22 80/69/22 78/70/22
f 76/71/22 83/63/22 78/70/22
f 83/63/22 76/71/22 74/72/22
f 72/73/22 83/63/22 74/72/22
f 83/63/22 72/73/22 70/74/22
f 68/75/22 83/63/22 70/74/22
f 83/63/22 68/75/22 66/76/22
f 64/77/22 83/63/22 66/76/22
f 83/63/22 64/77/22 62/78/22
f 60/79/22 83/63/22 62/78/22
f 83/63/22 60/79/22 58/80/22
f 56/81/22 83/63/22 58/80/22
f 83/63/22 56/81/22 54/82/22
f 52/83/22 83/63/22 54/82/22
f 83/63/22 52/83/22 50/84/22
f 50/84/22 48/67/22 83/63/22
